<?xml version="1.0" standalone="no"?>
<!DOCTYPE svg PUBLIC "-//W3C//DTD SVG 20010904//EN"
 "http://www.w3.org/TR/2001/REC-SVG-20010904/DTD/svg10.dtd">
<svg version="1.0" xmlns="http://www.w3.org/2000/svg"
 width="1080.000000pt" height="1080.000000pt" viewBox="0 0 1080.000000 1080.000000"
 preserveAspectRatio="xMidYMid meet">
<metadata>
Created by potrace 1.14, written by Peter Selinger 2001-2017
</metadata>
<g transform="translate(0.000000,1080.000000) scale(0.100000,-0.100000)"
fill="#000000" stroke="none">
<path d="M5129 10785 c-2 -1 -58 -6 -124 -10 -66 -4 -122 -8 -125 -10 -3 -1
-40 -6 -83 -10 -43 -3 -88 -8 -100 -10 -12 -2 -40 -6 -62 -10 -82 -12 -201
-32 -245 -40 -14 -3 -38 -8 -53 -11 -29 -5 -268 -60 -322 -74 -220 -57 -496
-153 -740 -258 -189 -81 -483 -230 -602 -305 -24 -15 -45 -27 -48 -27 -10 0
-317 -205 -405 -270 -762 -565 -1360 -1303 -1735 -2140 -26 -58 -54 -120 -62
-138 -59 -133 -205 -567 -238 -709 -2 -10 -18 -75 -35 -146 -16 -70 -32 -142
-35 -160 -3 -17 -8 -39 -10 -47 -2 -8 -6 -33 -10 -55 -3 -22 -10 -65 -15 -95
-17 -96 -17 -102 -35 -245 -6 -50 -8 -68 -22 -250 -16 -195 -9 -686 12 -890
11 -109 18 -172 20 -187 2 -9 7 -38 10 -65 33 -235 105 -563 175 -788 12 -38
25 -83 30 -100 25 -93 134 -375 210 -545 67 -152 201 -408 286 -551 57 -96
209 -329 236 -364 5 -5 47 -62 94 -125 313 -417 712 -810 1134 -1116 369 -268
790 -500 1185 -654 11 -4 36 -15 55 -23 71 -30 279 -100 429 -143 283 -82 622
-150 896 -180 28 -3 64 -7 80 -9 150 -20 703 -27 905 -12 145 11 244 21 325
32 19 3 52 7 73 10 76 11 170 27 267 47 55 11 109 21 120 23 41 6 274 68 400
105 603 181 1180 474 1690 860 78 58 154 118 170 132 17 14 66 56 110 93 120
103 285 262 420 406 570 609 1004 1375 1234 2181 45 157 115 451 125 524 2 16
11 72 19 124 18 111 25 163 33 245 3 33 7 71 9 84 26 157 26 882 0 1044 -2 12
-6 49 -10 82 -3 33 -7 71 -10 85 -2 14 -7 45 -9 70 -11 84 -55 324 -81 435
-14 61 -28 118 -30 128 -82 354 -271 840 -474 1221 -98 185 -272 461 -390 621
-29 39 -62 83 -74 100 -34 45 -207 256 -246 299 -442 487 -846 814 -1411 1141
-80 46 -487 245 -502 245 -8 0 -18 4 -24 8 -5 5 -58 28 -119 51 -60 24 -119
47 -130 52 -23 10 -227 78 -325 108 -95 29 -335 88 -453 112 -56 11 -109 22
-117 24 -23 4 -92 15 -125 20 -16 2 -43 6 -60 9 -54 9 -198 26 -280 32 -44 3
-91 8 -105 11 -28 5 -666 14 -671 8z"/>
</g>
</svg>
